<svg width="24" height="24" viewBox="0 0 24 24" fill="none" xmlns="http://www.w3.org/2000/svg">
<path d="M11.2787 3.45332C11.5092 2.98638 11.6245 2.75291 11.7809 2.67831C11.917 2.61341 12.0752 2.61341 12.2113 2.67831C12.3677 2.75291 12.483 2.98638 12.7135 3.45332L14.9002 7.88328C14.9682 8.02113 15.0022 8.09006 15.0519 8.14358C15.096 8.19096 15.1488 8.22935 15.2074 8.25662C15.2736 8.28742 15.3497 8.29854 15.5018 8.32077L20.3931 9.03571C20.9082 9.11099 21.1657 9.14863 21.2849 9.27444C21.3886 9.38389 21.4373 9.5343 21.4176 9.68377C21.3949 9.85558 21.2085 10.0372 20.8356 10.4004L17.2975 13.8464C17.1873 13.9538 17.1321 14.0076 17.0965 14.0715C17.065 14.128 17.0448 14.1902 17.037 14.2545C17.0282 14.3271 17.0412 14.403 17.0672 14.5547L17.9021 19.4221C17.9901 19.9355 18.0341 20.1922 17.9514 20.3445C17.8794 20.477 17.7514 20.57 17.6032 20.5975C17.4327 20.6291 17.2022 20.5078 16.7412 20.2654L12.3685 17.9658C12.2322 17.8942 12.1641 17.8584 12.0923 17.8443C12.0288 17.8318 11.9634 17.8318 11.8999 17.8443C11.8281 17.8584 11.76 17.8942 11.6237 17.9658L7.25102 20.2654C6.79001 20.5078 6.5595 20.6291 6.38907 20.5975C6.24078 20.57 6.11282 20.477 6.04083 20.3445C5.95809 20.1922 6.00212 19.9355 6.09017 19.4221L6.92498 14.5547C6.95101 14.403 6.96402 14.3271 6.95521 14.2545C6.94742 14.1902 6.92721 14.128 6.8957 14.0715C6.86012 14.0076 6.80497 13.9538 6.69468 13.8464L3.15665 10.4004C2.78376 10.0372 2.59731 9.85558 2.57462 9.68377C2.55488 9.5343 2.60365 9.38389 2.70734 9.27444C2.82653 9.14863 3.08407 9.11099 3.59914 9.03571L8.4904 8.32077C8.64252 8.29854 8.71857 8.28742 8.78481 8.25662C8.84346 8.22935 8.89626 8.19096 8.94028 8.14358C8.99 8.09006 9.02402 8.02113 9.09207 7.88328L11.2787 3.45332Z" fill="currentColor"/>
</svg>
