<svg width="24" height="24" viewBox="0 0 24 24" fill="none" xmlns="http://www.w3.org/2000/svg">
<path d="M8.39498 4.35107L7.79506 4.49615C7.8494 4.74393 7.85619 5.00056 7.81504 5.25111C7.77389 5.50166 7.68563 5.74115 7.55538 5.95564C7.42513 6.17013 7.2555 6.35535 7.05634 6.50052C6.85717 6.6457 6.63246 6.74795 6.39526 6.80131C5.91427 6.90734 5.41278 6.81138 4.99858 6.53407C4.58438 6.25675 4.29053 5.82021 4.18019 5.31827L2.98036 5.57619C2.81582 5.61381 2.66027 5.686 2.52309 5.7884C2.38592 5.89079 2.26998 6.02126 2.18228 6.17193C2.09458 6.3226 2.03693 6.49033 2.01283 6.665C1.98872 6.83967 1.99866 7.01765 2.04203 7.18819C2.04203 7.18819 2.5958 9.88022 3.24186 12.9108M19.9318 4.33495C19.8399 4.60638 19.6963 4.85543 19.5099 5.06701C19.3234 5.27859 19.0979 5.44829 18.847 5.56584C18.596 5.68339 18.325 5.74633 18.0502 5.75086C17.7754 5.75539 17.5026 5.70141 17.2482 5.59219C16.9939 5.48297 16.7634 5.32078 16.5707 5.11545C16.378 4.91012 16.227 4.66592 16.127 4.39766C16.027 4.12939 15.98 3.84264 15.9888 3.55477C15.9977 3.2669 16.0622 2.98392 16.1785 2.72295L14.9325 2.11039C14.5998 1.96509 14.2258 1.96316 13.8918 2.105C13.5577 2.24684 13.2905 2.52102 13.1481 2.86803L7.97965 15.6189L7.30283 17.2309C7.16417 17.5796 7.16232 17.9715 7.29767 18.3216C7.43303 18.6716 7.69466 18.9517 8.0258 19.1008L14.2711 21.8896C14.6038 22.0349 14.9777 22.0368 15.3118 21.895C15.6459 21.7532 15.9131 21.479 16.0554 21.132L21.9007 6.72071C22.0296 6.38559 22.0331 6.01185 21.9105 5.67416C21.7879 5.33647 21.5482 5.0597 21.2393 4.89915L19.9318 4.33495Z" stroke="currentColor" stroke-width="2" stroke-linecap="round" stroke-linejoin="round"/>
</svg>
